#!OML:ASF F:\VICON\USERDATA\INSTALL\rory3\rory3.ASF
:FULLY-SPECIFIED
:DEGREES
301
root -4.8575 15.8622 7.00782 70.4418 52.9139 -70.9977
lowerback 11.8151 -0.218916 -1.95418
upperback -3.51526 -1.12421 -5.11792
thorax -10.5514 -0.612586 -4.21915
lowerneck -36.0552 2.23289 -2.05096
upperneck 5.16976 2.68452 11.6416
head 6.88661 2.7681 4.82086
rclavicle 4.13472e-014 -6.36111e-014
rhumerus 38.3798 -42.2866 17.201
rradius 30.2749
rwrist 12.7521
rhand -29.8517 -68.2673
rfingers 7.12502
rthumb -3.1742 -1341.78
lclavicle 4.13472e-014 -6.36111e-014
lhumerus 56.8615 23.0237 10.1154
lradius 37.6502
lwrist 16.8034
lhand -50.8479 100.793
lfingers 7.12502
lthumb -23.4027 -72.1961
rfemur -18.8552 -11.8526 12.7991
rtibia 66.4924
rfoot -12.9727 -26.7805
rtoes 5.56667
lfemur -70.7349 41.4932 32.2601
ltibia 9.92003
lfoot -13.604 31.074
ltoes -0.195722
302
root -4.97452 15.7618 6.74904 70.2149 51.7542 -70.0422
lowerback 12.003 -0.367691 -1.49137
upperback -3.54417 -1.26134 -5.13363
thorax -10.7144 -0.711077 -4.47579
lowerneck -35.3226 2.4784 -1.89226
upperneck 5.28666 2.93405 11.5289
head 6.81523 2.85413 4.76758
rclavicle 1.33583e-013 -6.36111e-014
rhumerus 35.7155 -41.089 18.7761
rradius 30.5989
rwrist 12.5117
rhand -30.6831 -68.9046
rfingers 7.12502
rthumb -3.97712 -1341.15
lclavicle 1.33583e-013 -6.36111e-014
lhumerus 56.4015 22.5417 10.5306
lradius 36.9954
lwrist 16.9233
lhand -51.0218 100.281
lfingers 7.12502
lthumb -23.5695 -71.7057
rfemur -19.286 -11.8716 14.3844
rtibia 67.176
rfoot -14.073 -26.3349
rtoes 5.88272
lfemur -75.2782 41.5405 29.8335
ltibia 16.8697
lfoot -17.7908 29.4049
ltoes -2.06573
303
root -5.08641 15.6626 6.48798 69.9399 50.6837 -69.1941
lowerback 12.2016 -0.403394 -1.26259
upperback -3.43223 -1.21038 -4.5297
thorax -10.6867 -0.675937 -3.95043
lowerneck -35.4044 2.19938 -3.33138
upperneck 5.58968 3.11705 11.7358
head 6.89039 2.92117 5.10302
rclavicle -2.8625e-014 6.36111e-015
rhumerus 33.5773 -40.3855 20.7798
rradius 31.0352
rwrist 12.3574
rhand -31.3201 -68.6196
rfingers 7.12502
rthumb -4.5922 -1341.45
lclavicle -2.8625e-014 6.36111e-015
lhumerus 55.8267 22.5588 12.1534
lradius 36.0474
lwrist 16.7573
lhand -51.2008 99.6841
lfingers 7.12502
lthumb -23.7412 -71.1306
rfemur -19.646 -12.2776 16.3969
rtibia 67.5167
rfoot -9.91294 -27.9336
rtoes -1.48302
lfemur -79.168 41.5388 27.1217
ltibia 21.846
lfoot -22.004 27.1445
ltoes 0.919539
304
root -5.19558 15.5679 6.22751 69.7463 49.8768 -68.3314
lowerback 12.483 -0.52275 -0.90522
upperback -3.4493 -1.27795 -4.11159
thorax -10.8703 -0.716013 -3.68326
lowerneck -35.088 2.32942 -3.50751
upperneck 5.72455 3.35575 11.596
head 6.8705 3.00101 5.10586
rclavicle -1.94014e-013 -2.22639e-014
rhumerus 31.1689 -39.2121 22.4171
rradius 31.4272
rwrist 11.777
rhand -31.5503 -68.0265
rfingers 7.12502
rthumb -4.8145 -1342.05
lclavicle -1.94014e-013 -2.22639e-014
lhumerus 55.3874 22.3702 13.1333
lradius 35.0711
lwrist 16.7319
lhand -51.5512 99.3068
lfingers 7.12502
lthumb -24.0772 -70.7973
rfemur -20.4022 -11.9404 18.5412
rtibia 67.9999
rfoot -10.515 -27.7175
rtoes -2.00469
lfemur -81.3656 40.8541 26.7077
ltibia 25.563
lfoot -25.5772 26.8673
ltoes 4.36558
305
root -5.30784 15.4886 5.97891 69.2765 49.115 -67.8744
lowerback 12.876 -0.65478 -0.638229
upperback -3.60096 -1.39525 -3.79887
thorax -11.2769 -0.780796 -3.47185
lowerneck -34.856 2.94539 -2.70519
upperneck 6.349 3.85087 10.9734
head 7.02517 3.18933 4.84055
rclavicle -4.13472e-014 0
rhumerus 29.1107 -37.8887 23.1936
rradius 31.5581
rwrist 11.1706
rhand -31.6434 -68.4185
rfingers 7.12502
rthumb -4.90439 -1341.66
lclavicle -4.13472e-014 0
lhumerus 54.8125 22.0332 13.5197
lradius 34.1858
lwrist 16.7398
lhand -52.0778 100.642
lfingers 7.12502
lthumb -24.5821 -72.2002
rfemur -21.1957 -10.9225 21.0525
rtibia 68.3206
rfoot -11.4582 -27.6552
rtoes 0.395506
lfemur -82.6436 40.1362 26.9004
ltibia 28.3893
lfoot -28.6047 27.562
ltoes 7.95108
306
root -5.40904 15.4251 5.74518 69.1426 48.3072 -67.1089
lowerback 13.2726 -0.879773 -0.204017
upperback -3.71908 -1.68843 -4.25926
thorax -11.699 -0.976433 -4.16677
lowerneck -34.3757 3.72439 -0.334646
upperneck 6.37714 3.93418 10.5128
head 7.01561 3.24366 4.30727
rclavicle -6.36111e-014 2.54444e-014
rhumerus 26.3424 -36.4568 23.0499
rradius 31.6228
rwrist 10.4987
rhand -32.1335 -70.2192
rfingers 7.12502
rthumb -5.37764 -1339.87
lclavicle -6.36111e-014 2.54444e-014
lhumerus 54.936 21.5774 12.892
lradius 33.3906
lwrist 16.9905
lhand -52.3025 102.518
lfingers 7.12502
lthumb -24.7975 -74.1054
rfemur -22.2363 -10.0352 23.4965
rtibia 68.6422
rfoot -11.5865 -27.5636
rtoes 1.46156
lfemur -83.7285 39.089 27.0535
ltibia 30.8371
lfoot -31.2401 28.904
ltoes 11.1981
307
root -5.50546 15.3844 5.53426 69.4654 47.1406 -65.7864
lowerback 13.7837 -0.926273 -0.918319
upperback -3.76675 -1.88871 -4.18877
thorax -12.0464 -1.01686 -3.63616
lowerneck -34.5619 3.84458 -0.225359
upperneck 6.67876 3.99313 10.6379
head 7.1411 3.29861 4.36
rclavicle 2.22639e-014 -3.49861e-014
rhumerus 23.8575 -35.3128 23.7553
rradius 31.6171
rwrist 9.67312
rhand -32.3234 -71.313
rfingers 7.12502
rthumb -5.56098 -1338.78
lclavicle 2.22639e-014 -3.49861e-014
lhumerus 55.0511 21.5116 13.6576
lradius 32.3039
lwrist 16.9693
lhand -52.1297 101.961
lfingers 7.12502
lthumb -24.6318 -73.5263
rfemur -23.4138 -9.18453 25.5839
rtibia 68.8843
rfoot -10.2937 -27.8394
rtoes -1.11175
lfemur -84.7718 37.7182 27.0764
ltibia 33.3795
lfoot -33.369 30.6099
ltoes 13.0521
308
root -5.59639 15.3696 5.3427 70.3112 45.8279 -63.7498
lowerback 14.4393 -1.13008 -2.27313
upperback -3.85044 -2.41757 -3.96016
thorax -12.4985 -1.14846 -2.48227
lowerneck -31.7147 1.84966 -3.88741
upperneck 4.29575 2.44653 15.4283
head 6.06945 2.80172 6.21573
rclavicle 1.33583e-013 3.18055e-015
rhumerus 22.0034 -34.39 24.0691
rradius 31.4747
rwrist 8.89043
rhand -31.75 -70.8682
rfingers 7.12502
rthumb -5.00734 -1339.21
lclavicle 1.33583e-013 3.18055e-015
lhumerus 54.9584 21.6319 14.5408
lradius 31.0661
lwrist 16.7863
lhand -52.0703 99.3267
lfingers 7.12502
lthumb -24.5749 -70.884
rfemur -24.7566 -8.37087 27.422
rtibia 69.0975
rfoot -10.6744 -27.8848
rtoes 0.0197148
lfemur -86.2742 36.0999 26.5642
ltibia 36.0461
lfoot -34.3821 32.0958
ltoes 12.9486
